<svg id="svg" version="1.1" xmlns="http://www.w3.org/2000/svg" xmlns:xlink="http://www.w3.org/1999/xlink" width="400" height="400" viewBox="0, 0, 400,400"><g id="svgg"><path id="path0" d="M120.000 105.792 C 120.000 106.052,123.973 113.251,124.432 113.824 C 124.619 114.057,126.128 116.622,127.786 119.524 C 129.444 122.426,132.125 127.095,133.743 129.900 C 135.362 132.705,137.674 136.710,138.880 138.800 C 143.698 147.149,147.412 153.572,154.607 166.000 C 158.747 173.150,162.705 179.990,163.402 181.200 C 164.100 182.410,166.049 185.785,167.735 188.700 C 169.421 191.615,172.123 196.295,173.740 199.100 C 175.357 201.905,178.356 207.080,180.404 210.600 C 182.452 214.120,185.147 218.800,186.393 221.000 C 187.639 223.200,189.230 225.920,189.929 227.044 L 191.200 229.088 191.200 266.344 L 191.200 303.600 199.400 303.600 L 207.600 303.600 207.601 266.500 L 207.603 229.400 208.459 228.000 C 209.255 226.697,212.110 221.792,219.519 209.000 C 221.175 206.140,223.782 201.640,225.311 199.000 C 229.556 191.673,233.887 184.190,236.191 180.200 C 237.335 178.220,241.297 171.380,244.995 165.000 C 248.693 158.620,252.649 151.780,253.787 149.800 C 254.924 147.820,258.887 140.980,262.594 134.600 C 266.300 128.220,270.628 120.750,272.211 118.000 C 273.794 115.250,275.657 112.042,276.351 110.872 C 277.045 109.701,277.973 108.036,278.414 107.172 L 279.216 105.600 269.625 105.600 L 260.034 105.600 259.072 107.300 C 258.542 108.235,256.758 111.430,255.107 114.400 C 249.903 123.760,244.377 133.641,241.796 138.200 C 240.426 140.620,237.998 144.940,236.400 147.800 C 234.802 150.660,232.378 154.980,231.014 157.400 C 229.650 159.820,227.177 164.230,225.518 167.200 C 223.859 170.170,221.243 174.850,219.703 177.600 C 218.164 180.350,215.144 185.750,212.991 189.600 C 210.839 193.450,207.967 198.580,206.609 201.000 C 205.250 203.420,203.163 207.151,201.969 209.292 C 200.776 211.432,199.697 213.187,199.571 213.192 C 199.314 213.201,198.565 211.886,190.002 196.400 C 183.849 185.272,179.669 177.738,174.800 169.000 C 173.329 166.360,170.629 161.500,168.800 158.200 C 166.971 154.900,164.271 150.040,162.800 147.400 C 161.329 144.760,158.630 139.900,156.803 136.600 C 154.976 133.300,152.721 129.250,151.791 127.600 C 148.384 121.549,143.386 112.510,141.617 109.200 L 139.800 105.800 129.900 105.693 C 124.455 105.634,120.000 105.679,120.000 105.792 " stroke="none" fill="#fbfbfb" fill-rule="evenodd"></path><path id="path1" d="M187.000 0.637 C 186.120 0.721,183.150 0.979,180.400 1.212 C 171.698 1.947,154.149 4.789,153.603 5.550 C 153.491 5.706,151.960 6.162,150.200 6.563 C 145.665 7.599,134.753 10.743,134.234 11.164 C 133.996 11.358,132.180 12.082,130.200 12.772 C 124.288 14.834,119.200 16.913,119.200 17.268 C 119.200 17.450,119.007 17.600,118.771 17.600 C 118.214 17.600,107.103 22.727,106.818 23.116 C 106.698 23.279,105.430 24.015,104.000 24.753 C 99.397 27.126,97.019 28.483,96.200 29.205 C 95.760 29.592,94.680 30.274,93.800 30.719 C 91.920 31.669,79.702 40.136,79.048 40.941 C 78.802 41.244,77.520 42.271,76.200 43.221 C 69.488 48.056,52.277 64.625,48.177 70.200 C 47.530 71.080,46.612 72.114,46.139 72.499 C 45.665 72.883,44.716 74.044,44.031 75.079 C 43.346 76.113,41.965 77.959,40.962 79.180 C 38.454 82.233,32.137 91.395,30.981 93.656 C 30.459 94.676,29.763 95.779,29.436 96.107 C 28.705 96.838,24.000 105.331,24.000 105.919 C 24.000 106.152,23.735 106.608,23.411 106.932 C 22.783 107.560,19.111 115.135,18.151 117.784 C 17.835 118.655,17.427 119.465,17.245 119.584 C 16.830 119.854,14.520 125.714,12.744 131.000 C 12.005 133.200,11.273 135.096,11.118 135.212 C 10.730 135.505,7.438 147.064,6.560 151.215 C 6.166 153.077,5.725 154.690,5.580 154.800 C 5.242 155.057,3.405 164.890,2.629 170.600 C 1.214 181.002,1.000 184.837,1.000 199.800 C 1.000 214.763,1.214 218.598,2.629 229.000 C 3.405 234.710,5.242 244.543,5.580 244.800 C 5.725 244.910,6.166 246.523,6.560 248.385 C 7.438 252.536,10.730 264.095,11.118 264.388 C 11.273 264.504,12.005 266.400,12.744 268.600 C 14.520 273.886,16.830 279.746,17.245 280.016 C 17.427 280.135,17.835 280.945,18.151 281.816 C 19.111 284.465,22.783 292.040,23.411 292.668 C 23.735 292.992,24.000 293.448,24.000 293.681 C 24.000 294.269,28.705 302.762,29.436 303.493 C 29.763 303.821,30.459 304.924,30.981 305.944 C 32.137 308.205,38.454 317.367,40.962 320.420 C 41.965 321.641,43.346 323.487,44.031 324.521 C 44.716 325.556,45.666 326.717,46.141 327.101 C 46.616 327.486,47.617 328.610,48.365 329.600 C 52.840 335.522,69.514 351.563,76.200 356.379 C 77.520 357.329,78.802 358.356,79.048 358.659 C 79.702 359.464,91.920 367.931,93.800 368.881 C 94.680 369.326,95.760 370.008,96.200 370.395 C 97.019 371.117,99.397 372.474,104.000 374.847 C 105.430 375.585,106.698 376.321,106.818 376.484 C 107.103 376.873,118.214 382.000,118.771 382.000 C 119.007 382.000,119.200 382.150,119.200 382.332 C 119.200 382.687,124.288 384.766,130.200 386.828 C 132.180 387.518,133.996 388.242,134.234 388.436 C 134.753 388.857,145.665 392.001,150.200 393.037 C 151.960 393.438,153.491 393.894,153.603 394.050 C 154.106 394.752,170.340 397.436,180.400 398.481 C 187.116 399.178,213.284 399.178,220.000 398.481 C 230.060 397.436,246.294 394.752,246.797 394.050 C 246.909 393.894,248.440 393.443,250.200 393.047 C 254.695 392.037,265.676 388.835,266.233 388.372 C 266.489 388.161,267.997 387.545,269.585 387.005 C 274.874 385.206,281.200 382.682,281.200 382.370 C 281.200 382.201,281.875 381.840,282.700 381.568 C 284.540 380.962,293.293 376.873,293.587 376.483 C 293.704 376.327,294.700 375.727,295.800 375.148 C 301.959 371.910,303.476 371.056,304.200 370.422 C 304.640 370.037,306.033 369.142,307.294 368.435 C 308.556 367.727,310.908 366.201,312.521 365.044 C 314.134 363.887,316.431 362.288,317.627 361.490 C 318.822 360.692,320.413 359.475,321.162 358.786 C 321.911 358.096,323.201 357.104,324.028 356.582 C 324.855 356.060,326.291 354.911,327.219 354.027 C 328.148 353.144,329.288 352.172,329.754 351.867 C 333.971 349.104,352.763 329.651,356.351 324.334 C 357.009 323.359,357.995 322.115,358.540 321.569 C 360.085 320.024,369.199 306.833,369.201 306.139 C 369.201 305.952,369.718 305.196,370.350 304.457 C 370.981 303.719,372.535 301.109,373.803 298.657 C 375.071 296.206,376.347 293.924,376.638 293.587 C 377.308 292.810,381.991 282.771,381.996 282.100 C 381.998 281.825,382.165 281.600,382.367 281.600 C 382.723 281.600,385.952 273.647,387.401 269.200 C 387.795 267.990,388.242 266.910,388.393 266.800 C 388.749 266.542,391.720 256.805,392.786 252.400 C 393.239 250.530,393.776 248.705,393.981 248.344 C 395.009 246.526,397.803 229.781,398.877 219.000 C 399.565 212.090,399.565 187.510,398.877 180.600 C 397.803 169.819,395.009 153.074,393.981 151.256 C 393.776 150.895,393.239 149.070,392.786 147.200 C 391.720 142.795,388.749 133.058,388.393 132.800 C 388.242 132.690,387.795 131.610,387.401 130.400 C 385.952 125.953,382.723 118.000,382.367 118.000 C 382.165 118.000,381.998 117.775,381.996 117.500 C 381.991 116.829,377.308 106.790,376.638 106.013 C 376.347 105.676,375.071 103.394,373.803 100.943 C 372.535 98.491,370.981 95.881,370.350 95.143 C 369.718 94.404,369.201 93.648,369.201 93.461 C 369.199 92.755,360.068 79.555,358.514 78.012 C 357.953 77.455,357.087 76.359,356.590 75.577 C 353.532 70.760,334.053 50.550,329.754 47.733 C 329.288 47.428,328.148 46.456,327.219 45.573 C 326.291 44.689,324.855 43.540,324.028 43.018 C 323.201 42.496,321.911 41.504,321.162 40.814 C 320.413 40.125,318.822 38.908,317.627 38.110 C 316.431 37.312,314.134 35.713,312.521 34.556 C 310.908 33.399,308.556 31.873,307.294 31.165 C 306.033 30.458,304.640 29.563,304.200 29.178 C 303.476 28.544,301.959 27.690,295.800 24.452 C 294.700 23.873,293.704 23.273,293.587 23.117 C 293.293 22.727,284.540 18.638,282.700 18.032 C 281.875 17.760,281.200 17.399,281.200 17.230 C 281.200 16.918,274.874 14.394,269.585 12.595 C 267.997 12.055,266.489 11.439,266.233 11.228 C 265.676 10.765,254.695 7.563,250.200 6.553 C 248.440 6.157,246.910 5.710,246.800 5.560 C 246.325 4.912,231.833 2.426,222.400 1.374 C 216.954 0.767,191.268 0.232,187.000 0.637 M141.987 109.109 C 143.190 111.249,145.007 114.530,146.026 116.400 C 147.045 118.270,148.830 121.510,149.993 123.600 C 151.156 125.690,153.458 129.830,155.107 132.800 C 156.757 135.770,159.459 140.630,161.112 143.600 C 162.766 146.570,164.970 150.530,166.011 152.400 C 167.052 154.270,169.257 158.230,170.912 161.200 C 174.739 168.069,189.198 194.108,193.124 201.200 C 194.768 204.170,196.875 208.011,197.807 209.736 L 199.501 212.871 200.810 210.536 C 201.530 209.251,203.231 206.220,204.589 203.800 C 205.948 201.380,208.470 196.880,210.195 193.800 C 211.919 190.720,214.047 186.940,214.924 185.400 C 215.800 183.860,217.817 180.260,219.407 177.400 C 223.544 169.957,227.477 162.929,230.600 157.400 C 232.091 154.760,234.611 150.260,236.201 147.400 C 237.791 144.540,240.765 139.230,242.810 135.600 C 244.855 131.970,247.418 127.380,248.506 125.400 C 249.594 123.420,251.160 120.630,251.985 119.200 C 252.810 117.770,254.906 114.042,256.643 110.915 L 259.800 105.230 269.700 105.215 C 276.514 105.205,279.600 105.334,279.600 105.631 C 279.600 105.868,278.631 107.713,277.446 109.731 C 276.261 111.749,273.629 116.280,271.597 119.800 C 269.565 123.320,266.955 127.820,265.796 129.800 C 264.637 131.780,262.342 135.740,260.696 138.600 C 253.801 150.578,251.335 154.843,248.783 159.200 C 247.301 161.730,245.372 165.060,244.496 166.600 C 243.620 168.140,241.327 172.100,239.401 175.400 C 237.474 178.700,235.135 182.750,234.203 184.400 C 233.270 186.050,231.913 188.390,231.187 189.600 C 230.462 190.810,228.840 193.600,227.584 195.800 C 226.328 198.000,224.040 201.960,222.500 204.600 C 219.375 209.958,213.256 220.513,210.442 225.400 L 208.600 228.600 208.400 266.200 L 208.200 303.800 199.500 303.908 L 190.800 304.016 190.800 266.746 L 190.800 229.477 189.350 226.838 C 188.553 225.387,187.406 223.390,186.803 222.400 C 186.200 221.410,183.950 217.540,181.804 213.800 C 179.657 210.060,176.954 205.380,175.797 203.400 C 174.640 201.420,172.350 197.460,170.708 194.600 C 169.066 191.740,166.675 187.600,165.394 185.400 C 164.113 183.200,161.772 179.150,160.193 176.400 C 158.613 173.650,156.069 169.240,154.539 166.600 C 153.008 163.960,149.629 158.110,147.030 153.600 C 144.431 149.090,140.946 143.060,139.286 140.200 C 137.626 137.340,135.066 132.930,133.597 130.400 C 132.128 127.870,129.424 123.190,127.588 120.000 C 125.751 116.810,123.113 112.263,121.724 109.895 C 120.336 107.527,119.200 105.502,119.200 105.395 C 119.200 105.288,123.835 105.204,129.500 105.209 L 139.800 105.217 141.987 109.109 " stroke="none" fill="#db7c8c" fill-rule="evenodd"></path><path id="path2" d="M119.600 105.500 C 119.600 105.665,124.173 105.800,129.762 105.800 C 135.351 105.800,139.840 105.665,139.738 105.500 C 139.636 105.335,135.063 105.200,129.576 105.200 C 124.089 105.200,119.600 105.335,119.600 105.500 M259.861 105.500 C 259.759 105.665,264.083 105.749,269.470 105.686 C 276.959 105.599,279.195 105.684,278.970 106.048 C 278.784 106.350,278.847 106.418,279.145 106.234 C 279.402 106.075,279.509 105.777,279.383 105.572 C 279.109 105.129,260.135 105.059,259.861 105.500 M207.698 266.292 L 207.600 303.584 199.300 303.700 L 191.000 303.817 199.313 303.909 C 205.663 303.978,207.670 303.882,207.816 303.500 C 207.921 303.225,207.959 286.350,207.901 266.000 L 207.796 229.000 207.698 266.292 " stroke="none" fill="#f2cbcc" fill-rule="evenodd"></path><path id="path3" d="M208.184 228.900 C 208.079 229.175,208.040 246.140,208.097 266.600 L 208.200 303.800 208.400 266.100 C 208.510 245.365,208.549 228.400,208.487 228.400 C 208.426 228.400,208.289 228.625,208.184 228.900 " stroke="none" fill="#e7abb4" fill-rule="evenodd"></path><path id="path4" d="M190.992 266.400 C 190.992 286.970,191.040 295.385,191.100 285.100 C 191.159 274.815,191.159 257.985,191.100 247.700 C 191.040 237.415,190.992 245.830,190.992 266.400 " stroke="none" fill="#ecbcc4" fill-rule="evenodd"></path></g></svg>